<svg width="100%" height="100%" viewbox="0 0 800 470" version="1.1" xmlns="http://www.w3.org/2000/svg" xmlns:xlink="http://www.w3.org/1999/xlink" xml:space="preserve" style="fill-rule:evenodd;clip-rule:evenodd;stroke-linejoin:round;stroke-miterlimit:1.41421;">
    <g>
        <path d="M539.04,186.551L540.015,291.928L629.913,291.928C741.273,297.669 718.87,196.05 718.87,148.011C718.87,96.5101 687.15,70.7597 623.711,70.7597L539.746,70.7597L539.04,186.551ZM460.259,292.021L459.893,70.9709L266.431,292.021L460.259,292.021ZM460.287,362.781L200.599,362.781L95.0385,470L-2.84217e-13,470L429.121,-1.13687e-13L642.483,-1.13687e-13C690.387,0 728.364,13.308 756.416,39.924C784.467,66.5401 798.493,102.136 798.493,146.713C798.493,193.453 812.55,276.778 754.797,325.685C725.667,350.353 683.266,362.688 627.595,362.688L540.015,362.688L540.015,470L460.287,470L460.287,362.781Z" style="fill:black;"/>
    </g>
</svg>
